<svg width="33" height="32" viewBox="0 0 33 32" fill="none" xmlns="http://www.w3.org/2000/svg">
<path d="M20.4882 15.68C20.2962 18.176 22.2802 20.256 24.7122 20.288C26.4402 20.288 28.0402 21.248 28.6802 22.848C29.8962 25.92 27.6242 28.832 24.7122 28.832C22.3442 28.832 20.4882 26.784 20.4562 24.416C20.3602 17.472 14.7602 11.872 7.81616 11.776C5.44816 11.712 3.40016 9.85596 3.40016 7.48796C3.36816 4.57596 6.31216 2.33596 9.38416 3.51996C10.9842 4.15996 11.9442 5.75996 11.9442 7.48796C11.9442 9.95196 14.0562 11.904 16.5522 11.712C18.7922 11.552 20.4242 9.56796 20.4882 7.32796C20.5522 4.79996 22.8242 2.84796 25.4162 3.23196C27.2082 3.51996 28.6802 4.99196 28.9362 6.78396C29.3202 9.37596 27.3682 11.648 24.8402 11.712C22.6002 11.808 20.6482 13.408 20.4882 15.68Z" fill="url(#paint0_linear_61_176)"/>
<path d="M10.3444 28.8C6.50439 28.8 3.40039 25.696 3.40039 21.856C3.40039 18.016 6.50439 14.912 10.3444 14.912C14.1844 14.912 17.2884 18.016 17.2884 21.856C17.2564 25.696 14.1524 28.8 10.3444 28.8Z" fill="url(#paint1_linear_61_176)"/>
<defs>
<linearGradient id="paint0_linear_61_176" x1="10.6675" y1="3.18359" x2="25.6692" y2="5.07004" gradientUnits="userSpaceOnUse">
<stop stop-color="#FFA11A"/>
<stop offset="1" stop-color="#FFC13B"/>
</linearGradient>
<linearGradient id="paint1_linear_61_176" x1="7.34073" y1="14.912" x2="15.474" y2="15.9361" gradientUnits="userSpaceOnUse">
<stop stop-color="#FFA11A"/>
<stop offset="1" stop-color="#FFC13B"/>
</linearGradient>
</defs>
</svg>
