<svg width="33" height="32" viewBox="0 0 33 32" fill="none" xmlns="http://www.w3.org/2000/svg">
<path d="M4.96 3.19995H14.784C15.328 3.19995 15.744 3.61595 15.744 4.15995V13.984C15.744 14.528 15.328 14.944 14.784 14.944H4.96C4.416 14.944 4 14.528 4 13.984V4.15995C4 3.61595 4.416 3.19995 4.96 3.19995ZM27.456 17.056H20C18.816 17.056 17.856 18.016 17.856 19.2V26.656C17.856 27.84 18.816 28.8 20 28.8H27.456C28.64 28.8 29.6 27.84 29.6 26.656V19.2C29.6 18.016 28.64 17.056 27.456 17.056ZM29.6 9.05595C29.6 12.288 26.976 14.912 23.744 14.912C20.512 14.912 17.888 12.288 17.888 9.05595C17.888 5.82395 20.512 3.19995 23.744 3.19995C26.976 3.19995 29.6 5.82395 29.6 9.05595ZM9.568 18.624L4.768 27.392C4.416 28.032 4.896 28.8 5.6 28.8H15.168C15.904 28.8 16.352 28.032 16 27.392L11.232 18.624C10.88 17.952 9.92 17.952 9.568 18.624Z" fill="url(#paint0_linear_61_152)"/>
<defs>
<linearGradient id="paint0_linear_61_152" x1="11.2633" y1="3.19995" x2="26.2555" y2="5.08764" gradientUnits="userSpaceOnUse">
<stop stop-color="#FFA11A"/>
<stop offset="1" stop-color="#FFC13B"/>
</linearGradient>
</defs>
</svg>
