<svg width="33" height="32" viewBox="0 0 33 32" fill="none" xmlns="http://www.w3.org/2000/svg">
<path d="M29.4003 4.70395C29.4003 3.87195 28.7283 3.19995 27.8963 3.19995H21.9123C17.7843 3.19995 14.4243 6.55995 14.4243 10.688C14.4243 14.816 17.7843 18.176 21.9123 18.176C26.0403 18.208 29.4003 14.848 29.4003 10.688V4.70395Z" fill="url(#paint0_linear_61_159)"/>
<path d="M3.80029 27.2959C3.80029 28.1279 4.47229 28.7999 5.30429 28.7999H11.2883C15.5763 28.7999 19.0323 25.1839 18.7763 20.8319C18.5523 17.0879 15.5123 14.0479 11.7683 13.8239C7.41629 13.5359 3.80029 16.9919 3.80029 21.3119V27.2959Z" fill="url(#paint1_linear_61_159)"/>
<path d="M8.05629 11.712C10.4068 11.712 12.3123 9.80647 12.3123 7.45595C12.3123 5.10543 10.4068 3.19995 8.05629 3.19995C5.70577 3.19995 3.80029 5.10543 3.80029 7.45595C3.80029 9.80647 5.70577 11.712 8.05629 11.712Z" fill="url(#paint2_linear_61_159)"/>
<path d="M25.6561 21.344C27.7041 21.344 29.4001 23.008 29.4001 25.088C29.4001 27.136 27.7361 28.8 25.6561 28.8C23.6081 28.8 21.9121 27.136 21.9121 25.056C21.9441 23.008 23.6081 21.344 25.6561 21.344Z" fill="url(#paint3_linear_61_159)"/>
<defs>
<linearGradient id="paint0_linear_61_159" x1="18.6733" y1="3.19995" x2="27.4438" y2="4.30423" gradientUnits="userSpaceOnUse">
<stop stop-color="#FFA11A"/>
<stop offset="1" stop-color="#FFC13B"/>
</linearGradient>
<linearGradient id="paint1_linear_61_159" x1="8.05311" y1="13.8071" x2="16.8315" y2="14.9122" gradientUnits="userSpaceOnUse">
<stop stop-color="#FFA11A"/>
<stop offset="1" stop-color="#FFC13B"/>
</linearGradient>
<linearGradient id="paint2_linear_61_159" x1="6.21534" y1="3.19995" x2="11.2003" y2="3.82761" gradientUnits="userSpaceOnUse">
<stop stop-color="#FFA11A"/>
<stop offset="1" stop-color="#FFC13B"/>
</linearGradient>
<linearGradient id="paint3_linear_61_159" x1="24.0366" y1="21.344" x2="28.4213" y2="21.8984" gradientUnits="userSpaceOnUse">
<stop stop-color="#FFA11A"/>
<stop offset="1" stop-color="#FFC13B"/>
</linearGradient>
</defs>
</svg>
