<svg width="64" height="64" viewBox="0 0 64 64" fill="none" xmlns="http://www.w3.org/2000/svg">
<rect width="64" height="64" rx="32" fill="#FFEDD1"/>
<path d="M32 10C24.149 10 17.7617 16.3873 17.7617 24.2383C17.7617 32.0893 24.149 38.4766 32 38.4766C39.851 38.4766 46.2383 32.0893 46.2383 24.2383C46.2383 16.3873 39.851 10 32 10ZM49.7152 47.7784C45.817 43.8204 40.6494 41.6406 35.1641 41.6406H28.8359C23.3507 41.6406 18.183 43.8204 14.2848 47.7784C10.4058 51.717 8.26953 56.916 8.26953 62.418C8.26953 63.2917 8.97786 64 9.85156 64H54.1484C55.0221 64 55.7305 63.2917 55.7305 62.418C55.7305 56.916 53.5942 51.717 49.7152 47.7784Z" fill="#FFDDA8"/>
</svg>
