<svg width="33" height="32" viewBox="0 0 33 32" fill="none" xmlns="http://www.w3.org/2000/svg">
<path d="M12.5598 19.84L9.39185 16.672C9.00785 16.288 9.00785 15.68 9.39185 15.328L12.5598 12.16C12.9438 11.776 13.5518 11.776 13.9038 12.16L17.0718 15.328C17.4558 15.712 17.4558 16.32 17.0718 16.672L13.9038 19.84C13.5198 20.224 12.9118 20.224 12.5598 19.84ZM18.5758 18.176L15.4078 21.3439C15.0238 21.7279 15.0238 22.336 15.4078 22.688L21.1998 28.48C21.3918 28.672 21.6158 28.768 21.8718 28.768H29.5198C29.9038 28.768 30.0638 28.3199 29.8078 28.0639L19.9518 18.176C19.5678 17.824 18.9598 17.824 18.5758 18.176ZM15.4078 10.656L18.5758 13.824C18.9598 14.208 19.5678 14.208 19.9198 13.824L29.8398 3.90395C30.0958 3.64795 29.9038 3.19995 29.5518 3.19995H21.9038C21.6478 3.19995 21.3918 3.29595 21.2318 3.48795L15.4078 9.27995C15.0558 9.66395 15.0558 10.272 15.4078 10.656ZM6.51185 18.176L5.23185 19.456C5.03985 19.648 4.94385 19.872 4.94385 20.128V27.168C4.94385 27.776 5.64785 28.064 6.09585 27.648L11.0558 22.72C11.4398 22.336 11.4398 21.728 11.0558 21.376L7.88785 18.208C7.50385 17.824 6.89585 17.824 6.51185 18.176ZM11.0558 9.27995L6.09585 4.35195C5.67985 3.93595 4.94385 4.22395 4.94385 4.83195V11.872C4.94385 12.128 5.03985 12.384 5.23185 12.544L6.51185 13.824C6.89585 14.208 7.50385 14.208 7.85585 13.824L11.0238 10.656C11.4078 10.272 11.4078 9.66395 11.0558 9.27995Z" fill="url(#paint0_linear_61_169)"/>
<defs>
<linearGradient id="paint0_linear_61_169" x1="12.0408" y1="3.19995" x2="26.6994" y2="5.00561" gradientUnits="userSpaceOnUse">
<stop stop-color="#FFA11A"/>
<stop offset="1" stop-color="#FFC13B"/>
</linearGradient>
</defs>
</svg>
