<svg width="32" height="32" viewBox="0 0 32 32" fill="none" xmlns="http://www.w3.org/2000/svg">
<path d="M11.7441 5.21598C11.7441 4.70398 12.1601 4.25598 12.7041 4.25598H27.8401C28.3841 4.25598 28.8001 4.70398 28.8001 5.21598V9.69598C28.8001 10.208 28.3841 10.656 27.8401 10.656H12.7041C12.1601 10.656 11.7441 10.208 11.7441 9.69598V5.21598Z" fill="url(#paint0_linear_61_140)"/>
<path d="M6.4002 10.656C8.16751 10.656 9.60019 9.22329 9.60019 7.45598C9.60019 5.68867 8.16751 4.25598 6.4002 4.25598C4.63288 4.25598 3.2002 5.68867 3.2002 7.45598C3.2002 9.22329 4.63288 10.656 6.4002 10.656Z" fill="url(#paint1_linear_61_140)"/>
<path d="M20.2562 18.2399C20.2562 18.7839 19.8402 19.1999 19.2962 19.1999H4.1602C3.6482 19.1999 3.2002 18.7839 3.2002 18.2399V13.7599C3.2002 13.2159 3.6482 12.7999 4.1602 12.7999H19.2962C19.8402 12.7999 20.2562 13.2159 20.2562 13.7599V18.2399Z" fill="url(#paint2_linear_61_140)"/>
<path d="M25.6004 19.1999C27.3677 19.1999 28.8004 17.7672 28.8004 15.9999C28.8004 14.2326 27.3677 12.7999 25.6004 12.7999C23.8331 12.7999 22.4004 14.2326 22.4004 15.9999C22.4004 17.7672 23.8331 19.1999 25.6004 19.1999Z" fill="url(#paint3_linear_61_140)"/>
<path d="M11.7441 22.304C11.7441 21.76 12.1601 21.344 12.7041 21.344H27.8401C28.3841 21.344 28.8001 21.76 28.8001 22.304V26.784C28.8001 27.328 28.3841 27.744 27.8401 27.744H12.7041C12.1601 27.744 11.7441 27.328 11.7441 26.784V22.304Z" fill="url(#paint4_linear_61_140)"/>
<path d="M6.4002 27.744C8.16751 27.744 9.60019 26.3113 9.60019 24.544C9.60019 22.7767 8.16751 21.344 6.4002 21.344C4.63288 21.344 3.2002 22.7767 3.2002 24.544C3.2002 26.3113 4.63288 27.744 6.4002 27.744Z" fill="url(#paint5_linear_61_140)"/>
<defs>
<linearGradient id="paint0_linear_61_140" x1="16.5833" y1="4.25598" x2="25.7034" y2="7.31625" gradientUnits="userSpaceOnUse">
<stop stop-color="#FFA11A"/>
<stop offset="1" stop-color="#FFC13B"/>
</linearGradient>
<linearGradient id="paint1_linear_61_140" x1="5.01602" y1="4.25598" x2="8.76408" y2="4.7279" gradientUnits="userSpaceOnUse">
<stop stop-color="#FFA11A"/>
<stop offset="1" stop-color="#FFC13B"/>
</linearGradient>
<linearGradient id="paint2_linear_61_140" x1="8.03936" y1="12.7999" x2="17.1594" y2="15.8602" gradientUnits="userSpaceOnUse">
<stop stop-color="#FFA11A"/>
<stop offset="1" stop-color="#FFC13B"/>
</linearGradient>
<linearGradient id="paint3_linear_61_140" x1="24.2162" y1="12.7999" x2="27.9643" y2="13.2718" gradientUnits="userSpaceOnUse">
<stop stop-color="#FFA11A"/>
<stop offset="1" stop-color="#FFC13B"/>
</linearGradient>
<linearGradient id="paint4_linear_61_140" x1="16.5833" y1="21.344" x2="25.7034" y2="24.4043" gradientUnits="userSpaceOnUse">
<stop stop-color="#FFA11A"/>
<stop offset="1" stop-color="#FFC13B"/>
</linearGradient>
<linearGradient id="paint5_linear_61_140" x1="5.01602" y1="21.344" x2="8.76408" y2="21.8159" gradientUnits="userSpaceOnUse">
<stop stop-color="#FFA11A"/>
<stop offset="1" stop-color="#FFC13B"/>
</linearGradient>
</defs>
</svg>
