<svg width="56" height="56" viewBox="0 0 56 56" fill="none" xmlns="http://www.w3.org/2000/svg">
<rect width="56" height="56" fill="black"/>
<path d="M28.624 16.6C33.072 16.6 36.112 18.872 36.112 22.776C36.112 27.576 31.6 29.112 26.832 29.112C25.808 29.112 24.784 29.048 23.76 28.92V36.888C23.792 38.04 24.848 38.712 26 38.872V39.032H18.608V38.872C19.728 38.712 20.784 38.04 20.816 36.888V18.744C20.784 17.592 19.728 16.92 18.608 16.76V16.6H28.624ZM26.032 28.76C30.256 28.76 32.912 26.936 32.912 22.712C32.912 19.096 30.896 16.952 26.736 16.952H23.76V28.6C24.592 28.696 25.36 28.76 26.032 28.76Z" fill="white"/>
</svg>
