<svg width="58" height="58" viewBox="0 0 58 58" fill="none" xmlns="http://www.w3.org/2000/svg">
<rect width="58" height="58" rx="29" fill="#4CAF50"/>
<path d="M21.159 41.782C23.4453 43.1924 26.1278 44 29.0035 44C37.2754 44 44 37.2712 44 29C44 20.7288 37.2754 14 29.0035 14H28.9965C20.7247 14 14 20.727 14 29C14 32.0936 14.9408 34.9763 16.5566 37.3665L14.9724 42.0887L14.3445 43.9604L16.225 43.3593L21.159 41.782Z" fill="#4CAF50" stroke="white" stroke-width="2"/>
<path d="M37.1495 34.7698C36.8117 35.7236 35.4712 36.5146 34.402 36.7456C33.6705 36.9013 32.715 37.0256 29.4985 35.6921C25.3842 33.9876 22.7347 29.8068 22.5282 29.5356C22.3305 29.2643 20.8657 27.3218 20.8657 25.3128C20.8657 23.3038 21.886 22.3256 22.2972 21.9056C22.635 21.5608 23.1932 21.4033 23.7287 21.4033C23.902 21.4033 24.0577 21.4121 24.1977 21.4191C24.609 21.4366 24.8155 21.4611 25.0867 22.1103C25.4245 22.9241 26.247 24.9331 26.345 25.1396C26.4447 25.3461 26.5445 25.6261 26.4045 25.8973C26.2732 26.1773 26.1577 26.3016 25.9512 26.5396C25.7447 26.7776 25.5487 26.9596 25.3422 27.2151C25.1532 27.4373 24.9397 27.6753 25.1777 28.0866C25.4157 28.4891 26.2382 29.8313 27.4492 30.9093C29.012 32.3006 30.279 32.7451 30.7322 32.9341C31.07 33.0741 31.4725 33.0408 31.7192 32.7783C32.0325 32.4406 32.4192 31.8806 32.813 31.3293C33.093 30.9338 33.4465 30.8848 33.8175 31.0248C34.1955 31.1561 36.1957 32.1448 36.607 32.3496C37.0182 32.5561 37.2895 32.6541 37.3892 32.8273C37.4872 33.0006 37.4872 33.8143 37.1495 34.7698Z" fill="white"/>
</svg>
