<svg width="149" height="30" viewBox="0 0 149 30" fill="none" xmlns="http://www.w3.org/2000/svg">
<path d="M10.624 0.0999985C15.072 0.0999985 18.112 2.372 18.112 6.276C18.112 11.076 13.6 12.612 8.832 12.612C7.808 12.612 6.784 12.548 5.76 12.42V20.388C5.792 21.54 6.848 22.212 8 22.372V22.532H0.608V22.372C1.728 22.212 2.784 21.54 2.816 20.388V2.244C2.784 1.092 1.728 0.419998 0.608 0.259998V0.0999985H10.624ZM8.032 12.26C12.256 12.26 14.912 10.436 14.912 6.212C14.912 2.596 12.896 0.452 8.736 0.452H5.76V12.1C6.592 12.196 7.36 12.26 8.032 12.26ZM33.0555 6.628L33.6955 12.548L33.5035 12.612C33.1515 11.236 32.7035 10.02 32.0635 9.06C30.4635 6.596 29.5675 6.372 28.8315 6.372C26.7835 6.436 24.7675 8.644 24.2555 12.9V19.076H24.2235C24.2235 19.524 24.2555 20.132 24.2555 20.388C24.3835 21.636 25.3115 22.212 26.4635 22.372V22.532H22.8155V19.076V22.532H19.2635V22.372C20.3835 22.212 21.3435 21.636 21.4395 20.388C21.5035 19.908 21.4715 18.5 21.4715 18.5H21.5035V9.988V7.812C21.5035 6.852 20.7355 6.564 19.2635 6.5V6.34C23.7755 6.18 24.0315 5.092 24.0635 4.9V4.868H24.2235V8.036H24.2555V10.724C25.1835 7.332 27.1035 5.572 29.5675 5.284C29.6635 5.284 29.7275 5.284 29.8235 5.252C30.1755 5.252 30.5595 5.284 30.8795 5.348C31.9675 5.604 32.8635 6.244 33.0555 6.628ZM38.5983 3.908C37.8303 3.908 37.2223 3.3 37.2223 2.532C37.2223 1.764 37.8303 1.156 38.5983 1.156C39.3343 1.156 39.9423 1.764 39.9423 2.532C39.9423 3.3 39.3343 3.908 38.5983 3.908ZM39.9743 20.388C40.1023 21.636 41.0303 22.212 42.1823 22.372V22.532H34.9823V22.372C36.1343 22.212 37.0623 21.636 37.1903 20.388C37.2223 19.908 37.2223 18.5 37.2223 18.5V9.988V7.844C37.2223 6.852 36.4543 6.564 34.9823 6.532V6.372C39.4943 6.18 39.7503 5.092 39.7823 4.9V4.868H39.9423V9.988V18.5C39.9423 18.5 39.9423 19.908 39.9743 20.388ZM56.5235 5.54H62.6355V5.7C60.9395 5.828 59.4995 6.66 59.0835 7.684L52.6195 22.468C52.1075 23.652 51.5955 24.74 51.0195 25.668C48.8435 29.732 45.0675 29.988 43.6595 29.828L41.8675 24.516L41.9955 24.356C43.4035 26.948 44.4275 27.908 45.6115 28.1C47.8195 28.452 49.1635 27.428 49.9315 26.532C50.1235 26.276 50.3155 26.02 50.5075 25.732C50.6035 25.572 50.6995 25.444 50.7315 25.348C51.2435 24.548 51.7235 23.588 52.1715 22.532H52.1075L45.6115 7.684C45.1955 6.692 43.6275 5.956 42.2195 5.764V5.54H50.2515V5.796C49.0675 6.052 48.0755 6.724 48.4915 7.684L53.5795 19.268L58.6355 7.684C59.0835 6.596 57.8675 5.892 56.5235 5.732V5.54ZM79.3828 21.092L79.5748 21.188C78.3908 22.436 76.9188 22.82 75.9268 22.82C74.5188 22.82 73.9108 21.924 73.9108 20.612V18.468C73.0468 20.804 70.9668 22.82 67.5108 22.82C64.7908 22.82 62.8388 21.508 62.8388 19.3C62.8388 15.268 69.5268 15.076 72.3748 12.708C73.2068 12.036 73.5588 11.204 73.9108 10.34V9.988C73.9108 8.612 73.5588 7.556 72.9508 6.788C72.6308 6.34 72.1828 6.084 71.7668 5.892C71.1588 5.636 70.4868 5.54 69.8468 5.636C65.7828 6.02 65.7188 8.676 65.7508 9.092C65.8468 10.916 67.1908 12.1 69.0788 12.004C69.6228 11.972 70.1667 11.844 70.6468 11.588C70.7108 11.716 70.7108 11.716 70.7428 11.78C69.3028 13.028 62.5508 13.54 62.9988 9.38C63.3188 6.276 68.3428 5.284 69.4948 5.284C69.5908 5.252 70.3268 5.252 70.3268 5.252C73.9748 5.252 76.6308 7.044 76.6308 9.988V20.196C76.6308 21.06 77.1108 21.668 77.9108 21.668C78.3588 21.668 78.8388 21.508 79.3828 21.092ZM73.9108 16.292V11.428C73.6228 12.004 73.2388 12.484 72.7588 12.932C69.8148 15.396 65.8148 15.556 65.8148 18.788C65.8148 20.612 67.0628 21.86 68.9508 21.86C71.7668 21.86 73.8148 19.108 73.9108 16.292ZM107.204 0.259998C106.052 0.419998 104.996 1.092 104.964 2.244V20.388C104.996 21.54 106.052 22.212 107.204 22.372V22.532H99.8118V22.372C100.932 22.212 102.02 21.54 102.02 20.388V19.684V1.06L92.6758 22.5H92.1958L83.2358 2.052V20.42C83.2358 21.38 84.3238 22.34 85.7638 22.372V22.5H80.3238V22.372C81.7638 22.34 82.8198 21.38 82.8198 20.42V2.244C82.8198 1.252 81.6038 0.515999 80.3238 0.259998V0.131998H85.5078L93.7318 18.948L101.988 0.131998H107.204V0.259998ZM124.9 17.604C124.9 20.58 122.308 22.82 117.892 22.82C113.732 22.82 110.5 20.772 110.5 17.252V2.244C110.468 1.092 109.412 0.419998 108.292 0.259998V0.0999985H115.684V0.259998C114.532 0.419998 113.476 1.092 113.444 2.244V17.572C113.444 20.036 115.62 22.02 118.98 22.02C122.276 22.02 124.484 20.036 124.484 17.572V2.212C124.484 1.252 123.396 0.292 121.956 0.259998V0.0999985H127.396V0.259998C125.956 0.292 124.9 1.252 124.9 2.212V17.604ZM145.26 20.388C145.868 21.7 146.988 22.084 148.332 22.34V22.5H140.172V22.34C141.708 22.02 142.54 21.412 142.156 20.388L139.532 13.7C139.5 13.732 139.468 13.764 139.468 13.796C138.732 14.5 137.708 14.852 136.428 14.852C136.396 14.852 134.796 14.852 134.796 14.852C131.948 14.852 130.604 17.444 130.092 19.044V19.108L129.612 20.388C129.452 20.804 129.548 21.284 129.772 21.572C130.124 22.02 130.764 22.244 131.5 22.34V22.5H125.964V22.34C127.724 22.116 128.78 21.38 129.196 20.388L136.844 0.0999985H137.324L145.26 20.388ZM139.212 13.54C139.276 13.476 139.34 13.412 139.372 13.348L135.724 4.132L131.052 16.516C132.012 15.204 133.292 14.5 134.796 14.5H136.396C137.644 14.5 138.572 14.18 139.212 13.54Z" fill="white"/>
</svg>
